<svg width="96" height="96" viewBox="0 0 96 96" fill="none" xmlns="http://www.w3.org/2000/svg">
<g clip-path="url(#clip0_4303_1230)">
<path d="M88.0022 48.7742V20.1851C47.4264 36.0448 32.5913 48.1506 36.6266 86.3339C36.8262 88.2228 37.9505 89.9193 39.674 90.7178C42.8776 92.202 45.7676 93.0181 48.0022 93.0181C59.4308 93.0181 88.0022 71.6707 88.0022 48.7742Z" fill="url(#paint0_linear_4303_1230)"/>
<path d="M88.0022 48.7742V20.1851C47.4264 36.0448 32.5913 48.1506 36.6266 86.3339C36.8262 88.2228 37.9505 89.9193 39.674 90.7178C42.8776 92.202 45.7676 93.0181 48.0022 93.0181C59.4308 93.0181 88.0022 71.6707 88.0022 48.7742Z" fill="url(#paint1_radial_4303_1230)" fill-opacity="0.6"/>
<path d="M48.0031 2.98071C55.6946 2.98071 71.151 6.86977 80.4367 9.41313C81.3044 9.6508 82.1183 9.88116 82.867 10.0982C85.9546 10.9935 88.0032 13.8488 88.0032 17.0636V21.7918C87.0855 42.8558 80.3356 48.983 61.4956 64.1529C59.0213 66.3425 56.4783 68.4253 53.8966 70.5398C50.1972 73.5697 46.4182 76.6649 42.6482 80.2323C41.2086 81.5946 40.3104 83.5233 40.3104 85.6617C40.3104 88.8752 42.3385 91.615 45.1845 92.6709C44.4905 92.5158 43.7614 92.3098 43.0031 92.0557C36.113 89.7463 26.8115 83.455 19.5292 75.1004C13.7877 39.3256 25.0411 21.7918 48.0031 2.98071Z" fill="url(#paint2_radial_4303_1230)"/>
<path d="M48.0031 2.98071C55.6946 2.98071 71.151 6.86977 80.4367 9.41313C81.3044 9.6508 82.1183 9.88116 82.867 10.0982C85.9546 10.9935 88.0032 13.8488 88.0032 17.0636V21.7918C87.0855 42.8558 80.3356 48.983 61.4956 64.1529C59.0213 66.3425 56.4783 68.4253 53.8966 70.5398C50.1972 73.5697 46.4182 76.6649 42.6482 80.2323C41.2086 81.5946 40.3104 83.5233 40.3104 85.6617C40.3104 88.8752 42.3385 91.615 45.1845 92.6709C44.4905 92.5158 43.7614 92.3098 43.0031 92.0557C36.113 89.7463 26.8115 83.455 19.5292 75.1004C13.7877 39.3256 25.0411 21.7918 48.0031 2.98071Z" fill="url(#paint3_radial_4303_1230)" fill-opacity="0.7"/>
<path d="M48.0031 2.98071C55.6946 2.98071 71.151 6.86977 80.4367 9.41313C81.3044 9.6508 82.1183 9.88116 82.867 10.0982C85.9546 10.9935 88.0032 13.8488 88.0032 17.0636V21.7918C87.0855 42.8558 80.3356 48.983 61.4956 64.1529C59.0213 66.3425 56.4783 68.4253 53.8966 70.5398C50.1972 73.5697 46.4182 76.6649 42.6482 80.2323C41.2086 81.5946 40.3104 83.5233 40.3104 85.6617C40.3104 88.8752 42.3385 91.615 45.1845 92.6709C44.4905 92.5158 43.7614 92.3098 43.0031 92.0557C36.113 89.7463 26.8115 83.455 19.5292 75.1004C13.7877 39.3256 25.0411 21.7918 48.0031 2.98071Z" fill="url(#paint4_radial_4303_1230)" fill-opacity="0.7"/>
<path d="M48.0031 2.98071C55.6946 2.98071 71.151 6.86977 80.4367 9.41313C81.3044 9.6508 82.1183 9.88116 82.867 10.0982C85.9546 10.9935 88.0032 13.8488 88.0032 17.0636V21.7918C87.0855 42.8558 80.3356 48.983 61.4956 64.1529C59.0213 66.3425 56.4783 68.4253 53.8966 70.5398C50.1972 73.5697 46.4182 76.6649 42.6482 80.2323C41.2086 81.5946 40.3104 83.5233 40.3104 85.6617C40.3104 88.8752 42.3385 91.615 45.1845 92.6709C44.4905 92.5158 43.7614 92.3098 43.0031 92.0557C36.113 89.7463 26.8115 83.455 19.5292 75.1004C13.7877 39.3256 25.0411 21.7918 48.0031 2.98071Z" fill="url(#paint5_radial_4303_1230)" fill-opacity="0.5"/>
<path d="M13.355 10.0261C22.1862 7.55507 39.661 2.98071 48.0027 2.98071C48.6035 2.98071 49.2516 3.00501 49.9404 3.05104C57.5657 3.78727 63.5271 10.2133 63.5271 18.0317C63.5271 20.8705 62.7411 23.5257 61.375 25.7917C58.4546 31.6111 53.6749 36.1847 46.401 42.1733C44.3116 43.8934 41.9159 45.7922 39.5275 47.6851C37.2703 49.474 35.0195 51.2579 33.0402 52.8809C28.2319 56.8234 25.293 59.233 23.6767 62.2568C22.1379 64.6175 21.2436 67.4368 21.2436 70.465C21.2436 74.8983 23.1604 78.8839 26.2104 81.6383C26.3073 81.747 26.4053 81.8529 26.5044 81.9559C26.5311 81.9956 26.5574 82.0351 26.5832 82.0746C25.6156 81.247 24.6577 80.3817 23.717 79.4819C15.1455 71.283 8.00269 60.222 8.00269 48.7737V17.1429L8.00269 17.1413C8.00339 13.829 10.1652 10.9187 13.355 10.0261Z" fill="url(#paint6_radial_4303_1230)"/>
<path d="M13.355 10.0261C22.1862 7.55507 39.661 2.98071 48.0027 2.98071C48.6035 2.98071 49.2516 3.00501 49.9404 3.05104C57.5657 3.78727 63.5271 10.2133 63.5271 18.0317C63.5271 20.8705 62.7411 23.5257 61.375 25.7917C58.4546 31.6111 53.6749 36.1847 46.401 42.1733C44.3116 43.8934 41.9159 45.7922 39.5275 47.6851C37.2703 49.474 35.0195 51.2579 33.0402 52.8809C28.2319 56.8234 25.293 59.233 23.6767 62.2568C22.1379 64.6175 21.2436 67.4368 21.2436 70.465C21.2436 74.8983 23.1604 78.8839 26.2104 81.6383C26.3073 81.747 26.4053 81.8529 26.5044 81.9559C26.5311 81.9956 26.5574 82.0351 26.5832 82.0746C25.6156 81.247 24.6577 80.3817 23.717 79.4819C15.1455 71.283 8.00269 60.222 8.00269 48.7737V17.1429L8.00269 17.1413C8.00339 13.829 10.1652 10.9187 13.355 10.0261Z" fill="url(#paint7_linear_4303_1230)" fill-opacity="0.8"/>
<path d="M13.355 10.0261C22.1862 7.55507 39.661 2.98071 48.0027 2.98071C48.6035 2.98071 49.2516 3.00501 49.9404 3.05104C57.5657 3.78727 63.5271 10.2133 63.5271 18.0317C63.5271 20.8705 62.7411 23.5257 61.375 25.7917C58.4546 31.6111 53.6749 36.1847 46.401 42.1733C44.3116 43.8934 41.9159 45.7922 39.5275 47.6851C37.2703 49.474 35.0195 51.2579 33.0402 52.8809C28.2319 56.8234 25.293 59.233 23.6767 62.2568C22.1379 64.6175 21.2436 67.4368 21.2436 70.465C21.2436 74.8983 23.1604 78.8839 26.2104 81.6383C26.3073 81.747 26.4053 81.8529 26.5044 81.9559C26.5311 81.9956 26.5574 82.0351 26.5832 82.0746C25.6156 81.247 24.6577 80.3817 23.717 79.4819C15.1455 71.283 8.00269 60.222 8.00269 48.7737V17.1429L8.00269 17.1413C8.00339 13.829 10.1652 10.9187 13.355 10.0261Z" fill="url(#paint8_radial_4303_1230)" fill-opacity="0.5"/>
</g>
<defs>
<linearGradient id="paint0_linear_4303_1230" x1="83.893" y1="46.3597" x2="30.7598" y2="88.9444" gradientUnits="userSpaceOnUse">
<stop offset="0.716383" stop-color="#143DE0"/>
<stop offset="0.97828" stop-color="#003375"/>
</linearGradient>
<radialGradient id="paint1_radial_4303_1230" cx="0" cy="0" r="1" gradientUnits="userSpaceOnUse" gradientTransform="translate(54.1151 56.6016) rotate(50.2877) scale(47.3395 141.525)">
<stop offset="0.227837" stop-color="#003375"/>
<stop offset="0.434167" stop-color="#003375" stop-opacity="0.1"/>
</radialGradient>
<radialGradient id="paint2_radial_4303_1230" cx="0" cy="0" r="1" gradientUnits="userSpaceOnUse" gradientTransform="translate(90.6167 -21.4859) rotate(119.584) scale(151.276 97.2376)">
<stop offset="0.165327" stop-color="#23C0FE"/>
<stop offset="0.534" stop-color="#1C91FF"/>
</radialGradient>
<radialGradient id="paint3_radial_4303_1230" cx="0" cy="0" r="1" gradientUnits="userSpaceOnUse" gradientTransform="translate(39.202 32.7285) rotate(43.3819) scale(25.189 44.8208)">
<stop offset="0.143522" stop-color="#1B44B1"/>
<stop offset="1" stop-color="#045ED1" stop-opacity="0"/>
</radialGradient>
<radialGradient id="paint4_radial_4303_1230" cx="0" cy="0" r="1" gradientUnits="userSpaceOnUse" gradientTransform="translate(77.0949 51.7526) rotate(28.8937) scale(56.7755 83.2193)">
<stop offset="0.727798" stop-color="#045ED1" stop-opacity="0"/>
<stop offset="0.951239" stop-color="#1B44B1"/>
</radialGradient>
<radialGradient id="paint5_radial_4303_1230" cx="0" cy="0" r="1" gradientUnits="userSpaceOnUse" gradientTransform="translate(56.4556 28.0344) rotate(-111.097) scale(91.9639 70.2953)">
<stop offset="0.642036" stop-color="#11A7FF" stop-opacity="0"/>
<stop offset="0.796268" stop-color="#6AB3FF"/>
</radialGradient>
<radialGradient id="paint6_radial_4303_1230" cx="0" cy="0" r="1" gradientUnits="userSpaceOnUse" gradientTransform="translate(63.5271 -1.28948) rotate(126.614) scale(110.394 123.275)">
<stop stop-color="#92EEFE"/>
<stop offset="0.212749" stop-color="#35DDFF"/>
<stop offset="0.612478" stop-color="#15BDFB"/>
<stop offset="0.802844" stop-color="#08B1F9"/>
</radialGradient>
<linearGradient id="paint7_linear_4303_1230" x1="37.9267" y1="34.3899" x2="8.00268" y2="34.3899" gradientUnits="userSpaceOnUse">
<stop offset="0.110619" stop-color="#22CBFD" stop-opacity="0"/>
<stop offset="0.97092" stop-color="#92DEFF"/>
</linearGradient>
<radialGradient id="paint8_radial_4303_1230" cx="0" cy="0" r="1" gradientUnits="userSpaceOnUse" gradientTransform="translate(41.8907 15.8529) rotate(-87.7234) scale(86.6628 45.9894)">
<stop offset="0.657787" stop-color="#92DEFF" stop-opacity="0"/>
<stop offset="0.852025" stop-color="#92DEFF"/>
</radialGradient>
<clipPath id="clip0_4303_1230">
<rect width="96" height="96" fill="white"/>
</clipPath>
</defs>
</svg>
