<svg width="48" height="48" viewBox="0 0 48 48" fill="none" xmlns="http://www.w3.org/2000/svg">
<ellipse cx="23.9984" cy="24" rx="18.7483" ry="18.75" fill="url(#paint0_linear_76780_14568)"/>
<ellipse cx="23.9984" cy="24" rx="18.7483" ry="18.75" fill="url(#paint1_radial_76780_14568)"/>
<ellipse cx="23.9984" cy="24" rx="18.7483" ry="18.75" fill="url(#paint2_radial_76780_14568)" fill-opacity="0.5"/>
<path d="M24.001 5.25C34.3552 5.25023 42.749 13.6448 42.749 24C42.749 27.4447 41.8181 30.6714 40.1973 33.4453L40.502 32.7705C42.3575 28.6507 39.3417 23.9889 34.8232 23.9922L27.3613 23.998C25.5062 23.9994 24.0011 22.4957 24.001 20.6406V13.165C24.0009 8.64486 19.3337 5.63223 15.2148 7.49414L14.6152 7.76562C17.3755 6.16617 20.5813 5.25 24.001 5.25Z" fill="url(#paint3_linear_76780_14568)"/>
<path d="M24.001 5.25C34.3552 5.25023 42.749 13.6448 42.749 24C42.749 27.4447 41.8181 30.6714 40.1973 33.4453L40.502 32.7705C42.3575 28.6507 39.3417 23.9889 34.8232 23.9922L27.3613 23.998C25.5062 23.9994 24.0011 22.4957 24.001 20.6406V13.165C24.0009 8.64486 19.3337 5.63223 15.2148 7.49414L14.6152 7.76562C17.3755 6.16617 20.5813 5.25 24.001 5.25Z" fill="url(#paint4_radial_76780_14568)"/>
<path d="M24.001 5.25C34.3552 5.25023 42.749 13.6448 42.749 24C42.749 27.4447 41.8181 30.6714 40.1973 33.4453L40.502 32.7705C42.3575 28.6507 39.3417 23.9889 34.8232 23.9922L27.3613 23.998C25.5062 23.9994 24.0011 22.4957 24.001 20.6406V13.165C24.0009 8.64486 19.3337 5.63223 15.2148 7.49414L14.6152 7.76562C17.3755 6.16617 20.5813 5.25 24.001 5.25Z" fill="url(#paint5_radial_76780_14568)" fill-opacity="0.8"/>
<path d="M24.001 5.25C34.3552 5.25023 42.749 13.6448 42.749 24C42.749 27.4447 41.8181 30.6714 40.1973 33.4453L40.502 32.7705C42.3575 28.6507 39.3417 23.9889 34.8232 23.9922L27.3613 23.998C25.5062 23.9994 24.0011 22.4957 24.001 20.6406V13.165C24.0009 8.64486 19.3337 5.63223 15.2148 7.49414L14.6152 7.76562C17.3755 6.16617 20.5813 5.25 24.001 5.25Z" fill="url(#paint6_radial_76780_14568)"/>
<path d="M24.001 5.25C34.3552 5.25023 42.749 13.6448 42.749 24C42.749 27.4447 41.8181 30.6714 40.1973 33.4453L40.502 32.7705C42.3575 28.6507 39.3417 23.9889 34.8232 23.9922L27.3613 23.998C25.5062 23.9994 24.0011 22.4957 24.001 20.6406V13.165C24.0009 8.64486 19.3337 5.63223 15.2148 7.49414L14.6152 7.76562C17.3755 6.16617 20.5813 5.25 24.001 5.25Z" fill="url(#paint7_radial_76780_14568)"/>
<rect x="4" y="23" width="16" height="16" rx="3.25" fill="url(#paint8_radial_76780_14568)"/>
<rect x="4" y="23" width="16" height="16" rx="3.25" fill="url(#paint9_radial_76780_14568)" fill-opacity="0.3"/>
<path d="M11.2195 32.5938V35.5713H9.16113V26.4285H12.3411C13.4797 26.4285 14.3464 26.6771 14.9412 27.1744C15.5403 27.6717 15.8398 28.4092 15.8398 29.3868C15.8398 30.3942 15.5042 31.1805 14.8329 31.7459C14.1659 32.3112 13.2694 32.5938 12.1436 32.5938H11.2195ZM11.2195 28.0097V31.0126H12.0799C12.5897 31.0126 12.9827 30.8788 13.2588 30.611C13.535 30.3432 13.6731 29.9585 13.6731 29.457C13.6731 28.9937 13.5371 28.6366 13.2652 28.3858C12.9975 28.135 12.613 28.0097 12.1117 28.0097H11.2195Z" fill="white"/>
<defs>
<linearGradient id="paint0_linear_76780_14568" x1="22.096" y1="4.05626" x2="-0.876391" y2="26.0329" gradientUnits="userSpaceOnUse">
<stop offset="0.0582736" stop-color="#FF7F48"/>
<stop offset="1" stop-color="#E5495B"/>
</linearGradient>
<radialGradient id="paint1_radial_76780_14568" cx="0" cy="0" r="1" gradientUnits="userSpaceOnUse" gradientTransform="translate(31.4094 16.1307) rotate(135) scale(37.6453 63.3621)">
<stop offset="0.151523" stop-color="#AA1D2D"/>
<stop offset="0.380855" stop-color="#D12B18" stop-opacity="0.44"/>
<stop offset="0.601996" stop-color="#FF3C00" stop-opacity="0"/>
</radialGradient>
<radialGradient id="paint2_radial_76780_14568" cx="0" cy="0" r="1" gradientUnits="userSpaceOnUse" gradientTransform="translate(-1.29405 39.2412) rotate(-25.2832) scale(35.6859 64.6502)">
<stop offset="0.4067" stop-color="#FF66FB"/>
<stop offset="1" stop-color="#EA3D01" stop-opacity="0"/>
</radialGradient>
<linearGradient id="paint3_linear_76780_14568" x1="27.5493" y1="28.1723" x2="47.729" y2="13.2157" gradientUnits="userSpaceOnUse">
<stop offset="0.310768" stop-color="#FF6E30"/>
<stop offset="0.634576" stop-color="#FFA05C"/>
</linearGradient>
<radialGradient id="paint4_radial_76780_14568" cx="0" cy="0" r="1" gradientUnits="userSpaceOnUse" gradientTransform="translate(20.8504 26.2421) rotate(11.8349) scale(24.2391 23.1082)">
<stop offset="0.78593" stop-color="#FFA05C" stop-opacity="0"/>
<stop offset="0.904889" stop-color="#FFCE84"/>
</radialGradient>
<radialGradient id="paint5_radial_76780_14568" cx="0" cy="0" r="1" gradientUnits="userSpaceOnUse" gradientTransform="translate(24.653 23.7187) rotate(-33.1977) scale(24.4755 23.4062)">
<stop offset="0.295239" stop-color="#FF99E9"/>
<stop offset="0.727968" stop-color="#FF99E9" stop-opacity="0"/>
</radialGradient>
<radialGradient id="paint6_radial_76780_14568" cx="0" cy="0" r="1" gradientUnits="userSpaceOnUse" gradientTransform="translate(21.9045 26.5812) rotate(-48.864) scale(26.059 23.7991)">
<stop stop-color="#FD6EF9"/>
<stop offset="0.637205" stop-color="#FF9944"/>
<stop offset="0.85186" stop-color="#FCC479"/>
</radialGradient>
<radialGradient id="paint7_radial_76780_14568" cx="0" cy="0" r="1" gradientUnits="userSpaceOnUse" gradientTransform="translate(20.199 7.72799) rotate(98.3949) scale(13.2634 29.9755)">
<stop offset="0.144283" stop-color="#FF8D13"/>
<stop offset="0.537266" stop-color="#FF7F29" stop-opacity="0"/>
</radialGradient>
<radialGradient id="paint8_radial_76780_14568" cx="0" cy="0" r="1" gradientUnits="userSpaceOnUse" gradientTransform="translate(3.99805 23) rotate(45) scale(22.6274)">
<stop stop-color="#F8193E"/>
<stop offset="0.939062" stop-color="#920616"/>
</radialGradient>
<radialGradient id="paint9_radial_76780_14568" cx="0" cy="0" r="1" gradientUnits="userSpaceOnUse" gradientTransform="translate(11.998 32.6) rotate(90) scale(11.2 12.75)">
<stop offset="0.575893" stop-color="#FFB055" stop-opacity="0"/>
<stop offset="0.973806" stop-color="#FFF2BE"/>
</radialGradient>
</defs>
</svg>
